ISO-10303-21;
HEADER;
/* Generated by software containing HOOPS Exchange Step
 * from HOOPS Exchange, Inc. (www.tiangong.cloud) 
 */

FILE_DESCRIPTION(
/* description */ ('Unknown'),
/* implementation_level */ '2;1');

FILE_NAME(
/* name */ '\X2\7A84\X0\v\X2\5E268F6E5B54677F8F6E\X0\',
/* time_stamp */ '2026-04-22T14:16:10+08:00',
/* author */ ('Unknown'),
/* organization */ ('Unknown'),
/* preprocessor_version */ 'ST-DEVELOPER v19.4',
/* originating_system */ 'TianGong',
/* authorisation */ 'Unknown');

FILE_SCHEMA (('AUTOMOTIVE_DESIGN {1 0 10303 214 3 1 1}'));
ENDSEC;

DATA;
#10=PROPERTY_DEFINITION_REPRESENTATION(#14,#12);
#11=PROPERTY_DEFINITION_REPRESENTATION(#15,#13);
#12=REPRESENTATION('',(#16),#493);
#13=REPRESENTATION('',(#17),#493);
#14=PROPERTY_DEFINITION('pmi validation property','',#498);
#15=PROPERTY_DEFINITION('pmi validation property','',#498);
#16=VALUE_REPRESENTATION_ITEM('number of annotations',COUNT_MEASURE(0.));
#17=VALUE_REPRESENTATION_ITEM('number of views',COUNT_MEASURE(0.));
#18=SHAPE_REPRESENTATION_RELATIONSHIP('','',#287,#19);
#19=ADVANCED_BREP_SHAPE_REPRESENTATION('',(#285),#493);
#20=CONICAL_SURFACE('',#312,81.,1.23918376891597);
#21=CONICAL_SURFACE('',#314,92.,1.23918376891597);
#22=CONICAL_SURFACE('',#323,10.5,0.273542320965624);
#23=CONICAL_SURFACE('',#328,9.,0.273542320965624);
#24=CYLINDRICAL_SURFACE('',#303,66.6);
#25=CYLINDRICAL_SURFACE('',#305,6.);
#26=CYLINDRICAL_SURFACE('',#308,92.);
#27=CYLINDRICAL_SURFACE('',#317,81.);
#28=CYLINDRICAL_SURFACE('',#321,92.);
#29=CYLINDRICAL_SURFACE('',#322,66.6);
#30=CYLINDRICAL_SURFACE('',#329,18.05);
#31=CYLINDRICAL_SURFACE('',#330,18.05);
#32=CYLINDRICAL_SURFACE('',#331,18.05);
#33=CYLINDRICAL_SURFACE('',#332,18.05);
#34=ORIENTED_EDGE('',*,*,#82,.T.);
#35=ORIENTED_EDGE('',*,*,#83,.T.);
#36=ORIENTED_EDGE('',*,*,#84,.T.);
#37=ORIENTED_EDGE('',*,*,#85,.T.);
#38=ORIENTED_EDGE('',*,*,#86,.F.);
#39=ORIENTED_EDGE('',*,*,#87,.T.);
#40=ORIENTED_EDGE('',*,*,#88,.T.);
#41=ORIENTED_EDGE('',*,*,#89,.T.);
#42=ORIENTED_EDGE('',*,*,#90,.T.);
#43=ORIENTED_EDGE('',*,*,#91,.T.);
#44=ORIENTED_EDGE('',*,*,#92,.T.);
#45=ORIENTED_EDGE('',*,*,#93,.F.);
#46=ORIENTED_EDGE('',*,*,#94,.T.);
#47=ORIENTED_EDGE('',*,*,#86,.T.);
#48=ORIENTED_EDGE('',*,*,#95,.F.);
#49=ORIENTED_EDGE('',*,*,#96,.T.);
#50=ORIENTED_EDGE('',*,*,#97,.T.);
#51=ORIENTED_EDGE('',*,*,#98,.F.);
#52=ORIENTED_EDGE('',*,*,#94,.F.);
#53=ORIENTED_EDGE('',*,*,#97,.F.);
#54=ORIENTED_EDGE('',*,*,#98,.T.);
#55=ORIENTED_EDGE('',*,*,#99,.F.);
#56=ORIENTED_EDGE('',*,*,#100,.T.);
#57=ORIENTED_EDGE('',*,*,#101,.F.);
#58=ORIENTED_EDGE('',*,*,#99,.T.);
#59=ORIENTED_EDGE('',*,*,#100,.F.);
#60=ORIENTED_EDGE('',*,*,#102,.F.);
#61=ORIENTED_EDGE('',*,*,#103,.T.);
#62=ORIENTED_EDGE('',*,*,#103,.F.);
#63=ORIENTED_EDGE('',*,*,#101,.T.);
#64=ORIENTED_EDGE('',*,*,#102,.T.);
#65=ORIENTED_EDGE('',*,*,#92,.F.);
#66=ORIENTED_EDGE('',*,*,#104,.F.);
#67=ORIENTED_EDGE('',*,*,#93,.T.);
#68=ORIENTED_EDGE('',*,*,#96,.F.);
#69=ORIENTED_EDGE('',*,*,#104,.T.);
#70=ORIENTED_EDGE('',*,*,#105,.F.);
#71=ORIENTED_EDGE('',*,*,#95,.T.);
#72=ORIENTED_EDGE('',*,*,#87,.F.);
#73=ORIENTED_EDGE('',*,*,#105,.T.);
#74=ORIENTED_EDGE('',*,*,#91,.F.);
#75=ORIENTED_EDGE('',*,*,#85,.F.);
#76=ORIENTED_EDGE('',*,*,#90,.F.);
#77=ORIENTED_EDGE('',*,*,#84,.F.);
#78=ORIENTED_EDGE('',*,*,#89,.F.);
#79=ORIENTED_EDGE('',*,*,#83,.F.);
#80=ORIENTED_EDGE('',*,*,#88,.F.);
#81=ORIENTED_EDGE('',*,*,#82,.F.);
#82=EDGE_CURVE('',#106,#106,#130,.F.);
#83=EDGE_CURVE('',#107,#107,#131,.F.);
#84=EDGE_CURVE('',#108,#108,#132,.F.);
#85=EDGE_CURVE('',#109,#109,#133,.F.);
#86=EDGE_CURVE('',#110,#110,#134,.T.);
#87=EDGE_CURVE('',#111,#111,#135,.T.);
#88=EDGE_CURVE('',#112,#112,#136,.T.);
#89=EDGE_CURVE('',#113,#113,#137,.T.);
#90=EDGE_CURVE('',#114,#114,#138,.T.);
#91=EDGE_CURVE('',#115,#115,#139,.T.);
#92=EDGE_CURVE('',#116,#116,#140,.T.);
#93=EDGE_CURVE('',#117,#117,#141,.T.);
#94=EDGE_CURVE('',#118,#118,#142,.F.);
#95=EDGE_CURVE('',#119,#119,#143,.T.);
#96=EDGE_CURVE('',#120,#120,#144,.T.);
#97=EDGE_CURVE('',#121,#121,#145,.T.);
#98=EDGE_CURVE('',#122,#122,#146,.T.);
#99=EDGE_CURVE('',#123,#123,#147,.T.);
#100=EDGE_CURVE('',#124,#124,#148,.T.);
#101=EDGE_CURVE('',#125,#125,#149,.T.);
#102=EDGE_CURVE('',#126,#126,#150,.T.);
#103=EDGE_CURVE('',#127,#127,#151,.T.);
#104=EDGE_CURVE('',#128,#128,#152,.T.);
#105=EDGE_CURVE('',#129,#129,#153,.T.);
#106=VERTEX_POINT('',#426);
#107=VERTEX_POINT('',#428);
#108=VERTEX_POINT('',#430);
#109=VERTEX_POINT('',#432);
#110=VERTEX_POINT('',#434);
#111=VERTEX_POINT('',#436);
#112=VERTEX_POINT('',#439);
#113=VERTEX_POINT('',#441);
#114=VERTEX_POINT('',#443);
#115=VERTEX_POINT('',#445);
#116=VERTEX_POINT('',#447);
#117=VERTEX_POINT('',#449);
#118=VERTEX_POINT('',#452);
#119=VERTEX_POINT('',#455);
#120=VERTEX_POINT('',#457);
#121=VERTEX_POINT('',#460);
#122=VERTEX_POINT('',#462);
#123=VERTEX_POINT('',#466);
#124=VERTEX_POINT('',#469);
#125=VERTEX_POINT('',#471);
#126=VERTEX_POINT('',#475);
#127=VERTEX_POINT('',#477);
#128=VERTEX_POINT('',#482);
#129=VERTEX_POINT('',#486);
#130=CIRCLE('',#290,18.05);
#131=CIRCLE('',#291,18.05);
#132=CIRCLE('',#292,18.05);
#133=CIRCLE('',#293,18.05);
#134=CIRCLE('',#294,66.6);
#135=CIRCLE('',#295,10.5);
#136=CIRCLE('',#297,18.05);
#137=CIRCLE('',#298,18.05);
#138=CIRCLE('',#299,18.05);
#139=CIRCLE('',#300,18.05);
#140=CIRCLE('',#301,66.6);
#141=CIRCLE('',#302,10.5);
#142=CIRCLE('',#304,66.6);
#143=CIRCLE('',#306,6.);
#144=CIRCLE('',#307,6.);
#145=CIRCLE('',#309,92.);
#146=CIRCLE('',#310,92.);
#147=CIRCLE('',#313,81.);
#148=CIRCLE('',#315,81.);
#149=CIRCLE('',#316,92.);
#150=CIRCLE('',#319,66.6);
#151=CIRCLE('',#320,92.);
#152=CIRCLE('',#324,9.);
#153=CIRCLE('',#327,9.);
#154=EDGE_LOOP('',(#34));
#155=EDGE_LOOP('',(#35));
#156=EDGE_LOOP('',(#36));
#157=EDGE_LOOP('',(#37));
#158=EDGE_LOOP('',(#38));
#159=EDGE_LOOP('',(#39));
#160=EDGE_LOOP('',(#40));
#161=EDGE_LOOP('',(#41));
#162=EDGE_LOOP('',(#42));
#163=EDGE_LOOP('',(#43));
#164=EDGE_LOOP('',(#44));
#165=EDGE_LOOP('',(#45));
#166=EDGE_LOOP('',(#46));
#167=EDGE_LOOP('',(#47));
#168=EDGE_LOOP('',(#48));
#169=EDGE_LOOP('',(#49));
#170=EDGE_LOOP('',(#50));
#171=EDGE_LOOP('',(#51));
#172=EDGE_LOOP('',(#52));
#173=EDGE_LOOP('',(#53));
#174=EDGE_LOOP('',(#54));
#175=EDGE_LOOP('',(#55));
#176=EDGE_LOOP('',(#56));
#177=EDGE_LOOP('',(#57));
#178=EDGE_LOOP('',(#58));
#179=EDGE_LOOP('',(#59));
#180=EDGE_LOOP('',(#60));
#181=EDGE_LOOP('',(#61));
#182=EDGE_LOOP('',(#62));
#183=EDGE_LOOP('',(#63));
#184=EDGE_LOOP('',(#64));
#185=EDGE_LOOP('',(#65));
#186=EDGE_LOOP('',(#66));
#187=EDGE_LOOP('',(#67));
#188=EDGE_LOOP('',(#68));
#189=EDGE_LOOP('',(#69));
#190=EDGE_LOOP('',(#70));
#191=EDGE_LOOP('',(#71));
#192=EDGE_LOOP('',(#72));
#193=EDGE_LOOP('',(#73));
#194=EDGE_LOOP('',(#74));
#195=EDGE_LOOP('',(#75));
#196=EDGE_LOOP('',(#76));
#197=EDGE_LOOP('',(#77));
#198=EDGE_LOOP('',(#78));
#199=EDGE_LOOP('',(#79));
#200=EDGE_LOOP('',(#80));
#201=EDGE_LOOP('',(#81));
#202=FACE_BOUND('',#154,.T.);
#203=FACE_BOUND('',#155,.T.);
#204=FACE_BOUND('',#156,.T.);
#205=FACE_BOUND('',#157,.T.);
#206=FACE_BOUND('',#158,.T.);
#207=FACE_BOUND('',#159,.T.);
#208=FACE_BOUND('',#160,.T.);
#209=FACE_BOUND('',#161,.T.);
#210=FACE_BOUND('',#162,.T.);
#211=FACE_BOUND('',#163,.T.);
#212=FACE_BOUND('',#164,.T.);
#213=FACE_BOUND('',#165,.T.);
#214=FACE_BOUND('',#166,.T.);
#215=FACE_BOUND('',#167,.T.);
#216=FACE_BOUND('',#168,.T.);
#217=FACE_BOUND('',#169,.T.);
#218=FACE_BOUND('',#170,.T.);
#219=FACE_BOUND('',#171,.T.);
#220=FACE_BOUND('',#172,.T.);
#221=FACE_BOUND('',#173,.T.);
#222=FACE_BOUND('',#174,.T.);
#223=FACE_BOUND('',#175,.T.);
#224=FACE_BOUND('',#176,.T.);
#225=FACE_BOUND('',#177,.T.);
#226=FACE_BOUND('',#178,.T.);
#227=FACE_BOUND('',#179,.T.);
#228=FACE_BOUND('',#180,.T.);
#229=FACE_BOUND('',#181,.T.);
#230=FACE_BOUND('',#182,.T.);
#231=FACE_BOUND('',#183,.T.);
#232=FACE_BOUND('',#184,.T.);
#233=FACE_BOUND('',#185,.T.);
#234=FACE_BOUND('',#186,.T.);
#235=FACE_BOUND('',#187,.T.);
#236=FACE_BOUND('',#188,.T.);
#237=FACE_BOUND('',#189,.T.);
#238=FACE_BOUND('',#190,.T.);
#239=FACE_BOUND('',#191,.T.);
#240=FACE_BOUND('',#192,.T.);
#241=FACE_BOUND('',#193,.T.);
#242=FACE_BOUND('',#194,.T.);
#243=FACE_BOUND('',#195,.T.);
#244=FACE_BOUND('',#196,.T.);
#245=FACE_BOUND('',#197,.T.);
#246=FACE_BOUND('',#198,.T.);
#247=FACE_BOUND('',#199,.T.);
#248=FACE_BOUND('',#200,.T.);
#249=FACE_BOUND('',#201,.T.);
#250=PLANE('',#289);
#251=PLANE('',#296);
#252=PLANE('',#311);
#253=PLANE('',#318);
#254=PLANE('',#325);
#255=PLANE('',#326);
#256=ADVANCED_FACE('',(#202,#203,#204,#205,#206,#207),#250,.T.);
#257=ADVANCED_FACE('',(#208,#209,#210,#211,#212,#213),#251,.T.);
#258=ADVANCED_FACE('',(#214,#215),#24,.F.);
#259=ADVANCED_FACE('',(#216,#217),#25,.F.);
#260=ADVANCED_FACE('',(#218,#219),#26,.T.);
#261=ADVANCED_FACE('',(#220,#221),#252,.F.);
#262=ADVANCED_FACE('',(#222,#223),#20,.T.);
#263=ADVANCED_FACE('',(#224,#225),#21,.T.);
#264=ADVANCED_FACE('',(#226,#227),#27,.T.);
#265=ADVANCED_FACE('',(#228,#229),#253,.T.);
#266=ADVANCED_FACE('',(#230,#231),#28,.T.);
#267=ADVANCED_FACE('',(#232,#233),#29,.F.);
#268=ADVANCED_FACE('',(#234,#235),#22,.T.);
#269=ADVANCED_FACE('',(#236,#237),#254,.F.);
#270=ADVANCED_FACE('',(#238,#239),#255,.F.);
#271=ADVANCED_FACE('',(#240,#241),#23,.T.);
#272=ADVANCED_FACE('',(#242,#243),#30,.F.);
#273=ADVANCED_FACE('',(#244,#245),#31,.F.);
#274=ADVANCED_FACE('',(#246,#247),#32,.F.);
#275=ADVANCED_FACE('',(#248,#249),#33,.F.);
#276=CLOSED_SHELL('',(#256,#257,#258,#259,#260,#261,#262,#263,#264,#265,
#266,#267,#268,#269,#270,#271,#272,#273,#274,#275));
#277=STYLED_ITEM('',(#278),#285);
#278=PRESENTATION_STYLE_ASSIGNMENT((#279));
#279=SURFACE_STYLE_USAGE(.BOTH.,#280);
#280=SURFACE_SIDE_STYLE('',(#281));
#281=SURFACE_STYLE_FILL_AREA(#282);
#282=FILL_AREA_STYLE('',(#283));
#283=FILL_AREA_STYLE_COLOUR('',#284);
#284=COLOUR_RGB('',0.506983280181885,0.531564235687256,0.550000011920929);
#285=MANIFOLD_SOLID_BREP('',#276);
#286=SHAPE_DEFINITION_REPRESENTATION(#498,#287);
#287=SHAPE_REPRESENTATION('\X2\7A84\X0\v\X2\5E268F6E5B54677F8F6E\X0\',(#288),
#493);
#288=AXIS2_PLACEMENT_3D('',#423,#333,#334);
#289=AXIS2_PLACEMENT_3D('',#424,#335,#336);
#290=AXIS2_PLACEMENT_3D('',#425,#337,#338);
#291=AXIS2_PLACEMENT_3D('',#427,#339,#340);
#292=AXIS2_PLACEMENT_3D('',#429,#341,#342);
#293=AXIS2_PLACEMENT_3D('',#431,#343,#344);
#294=AXIS2_PLACEMENT_3D('',#433,#345,#346);
#295=AXIS2_PLACEMENT_3D('',#435,#347,#348);
#296=AXIS2_PLACEMENT_3D('',#437,#349,#350);
#297=AXIS2_PLACEMENT_3D('',#438,#351,#352);
#298=AXIS2_PLACEMENT_3D('',#440,#353,#354);
#299=AXIS2_PLACEMENT_3D('',#442,#355,#356);
#300=AXIS2_PLACEMENT_3D('',#444,#357,#358);
#301=AXIS2_PLACEMENT_3D('',#446,#359,#360);
#302=AXIS2_PLACEMENT_3D('',#448,#361,#362);
#303=AXIS2_PLACEMENT_3D('',#450,#363,#364);
#304=AXIS2_PLACEMENT_3D('',#451,#365,#366);
#305=AXIS2_PLACEMENT_3D('',#453,#367,#368);
#306=AXIS2_PLACEMENT_3D('',#454,#369,#370);
#307=AXIS2_PLACEMENT_3D('',#456,#371,#372);
#308=AXIS2_PLACEMENT_3D('',#458,#373,#374);
#309=AXIS2_PLACEMENT_3D('',#459,#375,#376);
#310=AXIS2_PLACEMENT_3D('',#461,#377,#378);
#311=AXIS2_PLACEMENT_3D('',#463,#379,#380);
#312=AXIS2_PLACEMENT_3D('',#464,#381,#382);
#313=AXIS2_PLACEMENT_3D('',#465,#383,#384);
#314=AXIS2_PLACEMENT_3D('',#467,#385,#386);
#315=AXIS2_PLACEMENT_3D('',#468,#387,#388);
#316=AXIS2_PLACEMENT_3D('',#470,#389,#390);
#317=AXIS2_PLACEMENT_3D('',#472,#391,#392);
#318=AXIS2_PLACEMENT_3D('',#473,#393,#394);
#319=AXIS2_PLACEMENT_3D('',#474,#395,#396);
#320=AXIS2_PLACEMENT_3D('',#476,#397,#398);
#321=AXIS2_PLACEMENT_3D('',#478,#399,#400);
#322=AXIS2_PLACEMENT_3D('',#479,#401,#402);
#323=AXIS2_PLACEMENT_3D('',#480,#403,#404);
#324=AXIS2_PLACEMENT_3D('',#481,#405,#406);
#325=AXIS2_PLACEMENT_3D('',#483,#407,#408);
#326=AXIS2_PLACEMENT_3D('',#484,#409,#410);
#327=AXIS2_PLACEMENT_3D('',#485,#411,#412);
#328=AXIS2_PLACEMENT_3D('',#487,#413,#414);
#329=AXIS2_PLACEMENT_3D('',#488,#415,#416);
#330=AXIS2_PLACEMENT_3D('',#489,#417,#418);
#331=AXIS2_PLACEMENT_3D('',#490,#419,#420);
#332=AXIS2_PLACEMENT_3D('',#491,#421,#422);
#333=DIRECTION('',(0.,0.,1.));
#334=DIRECTION('',(1.,0.,0.));
#335=DIRECTION('',(1.,0.,-4.25093767489834E-16));
#336=DIRECTION('',(4.25093767489834E-16,0.,1.));
#337=DIRECTION('',(1.,0.,-4.25093767489834E-16));
#338=DIRECTION('',(-4.25093767489834E-16,0.,-1.));
#339=DIRECTION('',(1.,0.,-4.25093767489834E-16));
#340=DIRECTION('',(-4.25093767489834E-16,0.,-1.));
#341=DIRECTION('',(1.,0.,-4.25093767489834E-16));
#342=DIRECTION('',(-4.25093767489834E-16,0.,-1.));
#343=DIRECTION('',(1.,0.,-4.25093767489834E-16));
#344=DIRECTION('',(-4.25093767489834E-16,0.,-1.));
#345=DIRECTION('',(-1.,0.,4.25093767489834E-16));
#346=DIRECTION('',(4.25093767489834E-16,0.,1.));
#347=DIRECTION('',(-1.,0.,0.));
#348=DIRECTION('',(0.,0.,1.));
#349=DIRECTION('',(-1.,0.,-4.25093767489834E-16));
#350=DIRECTION('',(-4.25093767489834E-16,0.,1.));
#351=DIRECTION('',(1.,0.,4.25093767489834E-16));
#352=DIRECTION('',(0.,-1.,0.));
#353=DIRECTION('',(1.,0.,4.25093767489834E-16));
#354=DIRECTION('',(0.,-1.,0.));
#355=DIRECTION('',(1.,0.,4.25093767489834E-16));
#356=DIRECTION('',(0.,-1.,0.));
#357=DIRECTION('',(1.,0.,4.25093767489834E-16));
#358=DIRECTION('',(0.,-1.,0.));
#359=DIRECTION('',(-1.,0.,-4.25093767489834E-16));
#360=DIRECTION('',(-4.25093767489834E-16,0.,1.));
#361=DIRECTION('',(-1.,0.,0.));
#362=DIRECTION('',(0.,0.,1.));
#363=DIRECTION('',(1.,0.,-4.25093767489834E-16));
#364=DIRECTION('',(4.25093767489834E-16,0.,1.));
#365=DIRECTION('',(-1.,6.12303176911189E-17,0.));
#366=DIRECTION('',(-6.12303176911189E-17,-1.,0.));
#367=DIRECTION('',(1.,-6.12303176911189E-17,0.));
#368=DIRECTION('',(6.12303176911189E-17,1.,0.));
#369=DIRECTION('',(-1.,0.,0.));
#370=DIRECTION('',(0.,0.,1.));
#371=DIRECTION('',(-1.,0.,0.));
#372=DIRECTION('',(0.,0.,1.));
#373=DIRECTION('',(-1.,0.,0.));
#374=DIRECTION('',(0.,0.,1.));
#375=DIRECTION('',(-1.,6.12303176911189E-17,0.));
#376=DIRECTION('',(6.12303176911189E-17,1.,0.));
#377=DIRECTION('',(-1.,0.,0.));
#378=DIRECTION('',(0.,0.,1.));
#379=DIRECTION('',(-1.,6.12303176911189E-17,0.));
#380=DIRECTION('',(-6.12303176911189E-17,-1.,0.));
#381=DIRECTION('',(1.,0.,0.));
#382=DIRECTION('',(0.,0.,-1.));
#383=DIRECTION('',(-1.,0.,0.));
#384=DIRECTION('',(0.,0.,1.));
#385=DIRECTION('',(-1.,0.,0.));
#386=DIRECTION('',(0.,0.,1.));
#387=DIRECTION('',(-1.,0.,0.));
#388=DIRECTION('',(0.,0.,1.));
#389=DIRECTION('',(-1.,0.,0.));
#390=DIRECTION('',(0.,0.,1.));
#391=DIRECTION('',(-1.,0.,0.));
#392=DIRECTION('',(0.,0.,1.));
#393=DIRECTION('',(-1.,6.12303176911189E-17,0.));
#394=DIRECTION('',(-6.12303176911189E-17,-1.,0.));
#395=DIRECTION('',(-1.,0.,-4.25093767489834E-16));
#396=DIRECTION('',(-4.25093767489834E-16,0.,1.));
#397=DIRECTION('',(-1.,6.12303176911189E-17,0.));
#398=DIRECTION('',(6.12303176911189E-17,1.,0.));
#399=DIRECTION('',(-1.,0.,0.));
#400=DIRECTION('',(0.,0.,1.));
#401=DIRECTION('',(-1.,0.,-4.25093767489834E-16));
#402=DIRECTION('',(-4.25093767489834E-16,0.,1.));
#403=DIRECTION('',(1.,0.,0.));
#404=DIRECTION('',(0.,0.,-1.));
#405=DIRECTION('',(-1.,0.,0.));
#406=DIRECTION('',(0.,0.,1.));
#407=DIRECTION('',(1.,0.,0.));
#408=DIRECTION('',(0.,0.,-1.));
#409=DIRECTION('',(-1.,0.,0.));
#410=DIRECTION('',(0.,0.,1.));
#411=DIRECTION('',(-1.,0.,0.));
#412=DIRECTION('',(0.,0.,1.));
#413=DIRECTION('',(-1.,0.,0.));
#414=DIRECTION('',(0.,0.,1.));
#415=DIRECTION('',(-1.,0.,-4.25093767489834E-16));
#416=DIRECTION('',(-4.25093767489834E-16,0.,1.));
#417=DIRECTION('',(-1.,0.,-4.25093767489834E-16));
#418=DIRECTION('',(-4.25093767489834E-16,0.,1.));
#419=DIRECTION('',(-1.,0.,-4.25093767489834E-16));
#420=DIRECTION('',(-4.25093767489834E-16,0.,1.));
#421=DIRECTION('',(-1.,0.,-4.25093767489834E-16));
#422=DIRECTION('',(-4.25093767489834E-16,0.,1.));
#423=CARTESIAN_POINT('',(0.,0.,0.));
#424=CARTESIAN_POINT('',(9.65384615384614,0.,5.28004674362871E-30));
#425=CARTESIAN_POINT('',(9.65384615384612,0.,38.55));
#426=CARTESIAN_POINT('',(9.65384615384612,0.,20.5));
#427=CARTESIAN_POINT('',(9.65384615384612,38.55,2.62677474294145E-14));
#428=CARTESIAN_POINT('',(9.65384615384612,38.55,-18.05));
#429=CARTESIAN_POINT('',(9.65384615384612,0.,-38.55));
#430=CARTESIAN_POINT('',(9.65384615384612,0.,-56.6));
#431=CARTESIAN_POINT('',(9.65384615384612,-38.55,2.62677474294145E-14));
#432=CARTESIAN_POINT('',(9.65384615384612,-38.55,-18.05));
#433=CARTESIAN_POINT('',(9.65384615384613,0.,-1.55322722736669E-15));
#434=CARTESIAN_POINT('',(9.65384615384616,0.,66.6));
#435=CARTESIAN_POINT('',(9.65384615384615,0.,0.));
#436=CARTESIAN_POINT('',(9.65384615384615,0.,10.5));
#437=CARTESIAN_POINT('',(5.34615384615387,0.,5.28004674362871E-30));
#438=CARTESIAN_POINT('',(5.34615384615385,0.,38.55));
#439=CARTESIAN_POINT('',(5.34615384615385,-18.05,38.55));
#440=CARTESIAN_POINT('',(5.34615384615387,38.55,2.44365742771506E-14));
#441=CARTESIAN_POINT('',(5.34615384615387,20.5,2.44365742771506E-14));
#442=CARTESIAN_POINT('',(5.34615384615388,0.,-38.55));
#443=CARTESIAN_POINT('',(5.34615384615388,-18.05,-38.55));
#444=CARTESIAN_POINT('',(5.34615384615387,-38.55,2.44365742771506E-14));
#445=CARTESIAN_POINT('',(5.34615384615387,-56.6,2.44365742771506E-14));
#446=CARTESIAN_POINT('',(5.34615384615388,0.,-1.55322722736669E-15));
#447=CARTESIAN_POINT('',(5.34615384615385,0.,66.6));
#448=CARTESIAN_POINT('',(5.34615384615385,0.,0.));
#449=CARTESIAN_POINT('',(5.34615384615385,0.,10.5));
#450=CARTESIAN_POINT('',(15.,0.,-3.82584390740851E-15));
#451=CARTESIAN_POINT('',(14.,0.,-3.40075013991867E-15));
#452=CARTESIAN_POINT('',(14.,-66.6,-3.40075013991867E-15));
#453=CARTESIAN_POINT('',(-246.59163455491,1.50988841237695E-14,0.));
#454=CARTESIAN_POINT('',(15.,0.,0.));
#455=CARTESIAN_POINT('',(15.,0.,6.));
#456=CARTESIAN_POINT('',(1.60050778983741E-15,0.,0.));
#457=CARTESIAN_POINT('',(1.60050778983741E-15,0.,6.));
#458=CARTESIAN_POINT('',(14.,0.,0.));
#459=CARTESIAN_POINT('',(14.,0.,0.));
#460=CARTESIAN_POINT('',(14.,92.,0.));
#461=CARTESIAN_POINT('',(11.9386552265793,0.,0.));
#462=CARTESIAN_POINT('',(11.9386552265793,0.,92.));
#463=CARTESIAN_POINT('',(14.,0.,0.));
#464=CARTESIAN_POINT('',(8.15105148039301,0.,0.));
#465=CARTESIAN_POINT('',(8.15105148039301,0.,0.));
#466=CARTESIAN_POINT('',(8.15105148039301,0.,81.));
#467=CARTESIAN_POINT('',(2.06134477342068,0.,0.));
#468=CARTESIAN_POINT('',(5.84894851960699,0.,0.));
#469=CARTESIAN_POINT('',(5.84894851960699,0.,81.));
#470=CARTESIAN_POINT('',(2.06134477342068,0.,0.));
#471=CARTESIAN_POINT('',(2.06134477342068,0.,92.));
#472=CARTESIAN_POINT('',(0.,0.,0.));
#473=CARTESIAN_POINT('',(0.,0.,0.));
#474=CARTESIAN_POINT('',(2.8311244914823E-14,0.,-3.8258439074085E-15));
#475=CARTESIAN_POINT('',(0.,0.,66.6));
#476=CARTESIAN_POINT('',(0.,0.,0.));
#477=CARTESIAN_POINT('',(5.63318922758294E-15,92.,0.));
#478=CARTESIAN_POINT('',(14.,0.,0.));
#479=CARTESIAN_POINT('',(1.73472347597681E-15,0.,-3.82584390740851E-15));
#480=CARTESIAN_POINT('',(5.34615384615385,0.,0.));
#481=CARTESIAN_POINT('',(1.53339994676771E-15,0.,0.));
#482=CARTESIAN_POINT('',(1.53339994676771E-15,0.,9.));
#483=CARTESIAN_POINT('',(1.56695386830256E-15,0.,9.));
#484=CARTESIAN_POINT('',(15.,0.,6.));
#485=CARTESIAN_POINT('',(15.,0.,0.));
#486=CARTESIAN_POINT('',(15.,0.,9.));
#487=CARTESIAN_POINT('',(15.,0.,0.));
#488=CARTESIAN_POINT('',(265.993425076835,-38.55,1.35236104790545E-13));
#489=CARTESIAN_POINT('',(265.993425076835,0.,-38.5499999999999));
#490=CARTESIAN_POINT('',(265.993425076835,38.55,1.35236104790545E-13));
#491=CARTESIAN_POINT('',(265.993425076835,0.,38.5500000000001));
#492=MECHANICAL_DESIGN_GEOMETRIC_PRESENTATION_REPRESENTATION('',(#277),
#493);
#493=(
GEOMETRIC_REPRESENTATION_CONTEXT(3)
GLOBAL_UNCERTAINTY_ASSIGNED_CONTEXT((#494))
GLOBAL_UNIT_ASSIGNED_CONTEXT((#497,#496,#495))
REPRESENTATION_CONTEXT('\X2\7A84\X0\v\X2\5E268F6E5B54677F8F6E\X0\',
'TOP_LEVEL_ASSEMBLY_PART')
);
#494=UNCERTAINTY_MEASURE_WITH_UNIT(LENGTH_MEASURE(0.005),#497,
'DISTANCE_ACCURACY_VALUE','Maximum Tolerance applied to model');
#495=(
NAMED_UNIT(*)
SI_UNIT($,.STERADIAN.)
SOLID_ANGLE_UNIT()
);
#496=(
NAMED_UNIT(*)
PLANE_ANGLE_UNIT()
SI_UNIT($,.RADIAN.)
);
#497=(
LENGTH_UNIT()
NAMED_UNIT(*)
SI_UNIT(.MILLI.,.METRE.)
);
#498=PRODUCT_DEFINITION_SHAPE('','',#499);
#499=PRODUCT_DEFINITION('','',#501,#500);
#500=PRODUCT_DEFINITION_CONTEXT('',#507,'design');
#501=PRODUCT_DEFINITION_FORMATION_WITH_SPECIFIED_SOURCE('','',#503,
 .NOT_KNOWN.);
#502=PRODUCT_RELATED_PRODUCT_CATEGORY('','',(#503));
#503=PRODUCT('\X2\7A84\X0\v\X2\5E268F6E5B54677F8F6E\X0\',
'\X2\7A84\X0\v\X2\5E268F6E5B54677F8F6E\X0\','\X2\7A84\X0\v\X2\5E268F6E5B54677F8F6E\X0\',
(#505));
#504=PRODUCT_CATEGORY('','');
#505=PRODUCT_CONTEXT('',#507,'mechanical');
#506=APPLICATION_PROTOCOL_DEFINITION('international standard',
'automotive_design',2010,#507);
#507=APPLICATION_CONTEXT(
'core data for automotive mechanical design processes');
ENDSEC;
END-ISO-10303-21;
